<?xml version="1.0" encoding="utf-8"?>
<!-- Generator: Adobe Illustrator 23.1.0, SVG Export Plug-In . SVG Version: 6.00 Build 0)  -->
<svg version="1.1" id="Слой_1" xmlns="http://www.w3.org/2000/svg" xmlns:xlink="http://www.w3.org/1999/xlink" x="0px" y="0px"
	 viewBox="0 0 512 512" style="enable-background: new 0 0 512 512" xml:space="preserve">
<style type="text/css">
	.st0{fill:#67747D;}
	.st1{fill:#282C31;}
</style>
<g>
	<g transform="matrix(1,0,0,1.1,-3.2,-13.5)">
		<path class="st0" d="M 171.9 247.7 c 4.2 -0.4 5.7 0.3 4.4 2.2 c -1.3 1.9 -4.3 4.5 -8.9 7.8 c -4.7 3.3 -9.9 6.6 -15.5 10.1 c -5.6 3.5 -10.7 6.5 -15.3 9 c -4.5 2.5 -7.3 4 -8.3 4.4 c -12.6 6.7 -25.6 12.9 -38.8 18.7 c -13.3 5.8 -27.2 10.3 -41.9 13.5 c -11.9 3 -20.2 1.3 -24.7 -5.1 s -5.9 -14.1 -4 -23 c 1.9 -14.1 7.6 -26.9 17.4 -38.4 c 2.9 -2.7 6 -3.7 9.5 -2.9 c 3.5 0.8 6 2.5 7.7 5.1 c 1.7 2.6 1.3 5.4 -1.3 8.4 c -5.5 6.7 -10.2 14.1 -13.9 22.3 c -3.7 8.2 -4.9 16.3 -3.5 24.4 c 3.5 2.9 8.4 3.8 14.6 2.8 c 6.2 -1 12.1 -2.5 17.6 -4.5 c 2.7 -0.9 5 -1.5 7.1 -1.9 c 18 -6.3 35.4 -13.7 52.1 -22.4 C 142.9 269.5 158.1 259.3 171.9 247.7 z M 52.1 226.5 c -6.2 -0.7 -9.5 -3.1 -9.7 -7 c -0.3 -4 1.4 -7.5 5 -10.4 c 3.6 -3 7.9 -3.2 13 -0.6 c 3 1.8 4.4 4.2 4 6.9 c -0.3 2.8 -1.7 5.3 -4 7.6 C 58.1 225.2 55.3 226.4 52.1 226.5 z"/>
		<path class="st0" d="M 498.8 275.1 c 0.1 2.3 -66.1 25.3 -107.8 0 c 0 0 -17.2 -11.2 -38.7 -13.1 c -2.9 -0.3 -8.4 -0.4 -14.3 2.1 c -1.1 0.5 -1.7 0.8 -9.4 5.6 c -6.8 4.2 -10.2 6.3 -12.8 8 c -4.9 3.1 -8.4 5.4 -9 5.9 c -4.8 3.5 -22.3 14.6 -43.9 21.3 c -16 5 -32.1 7.9 -48.4 8.8 c -16.3 0.9 -32.5 0.3 -48.4 -1.7 c -0.8 0 -1.5 -0.3 -2 -0.9 c -1.7 3.1 -3.3 6.3 -4.8 9.6 c -1.7 5.1 -3.4 10.2 -5.3 15.4 c -0.3 1.4 -1.2 2.5 -2.7 3.2 c -1.4 0.7 -2.9 1 -4.4 0.9 c -3 -1.1 -4.4 -3.1 -4 -6 c 0.3 -2.9 1.3 -5.8 2.8 -9 c 1 -2.4 1.7 -4.5 2 -6.4 c 0.5 -1.7 1.1 -3.4 1.8 -5.1 c 16.8 -55.9 36.2 -111.3 58.3 -166.3 c -2 -1 -3.3 -2.4 -3.9 -4.3 c -0.6 -1.8 -0.2 -3.9 1.1 -6.2 l 23.5 -36.9 c 2.2 -3.1 5 -4.8 8.4 -4.9 c 3.4 -0.1 6.3 0.8 8.6 2.9 c 2.3 2.1 2.7 4.7 1.1 8 c -26.4 53.5 -49.4 107.8 -68.9 163 c 6.7 -7.3 13.9 -14 21.7 -20.3 c 7.1 -5.6 14 -10.8 20.9 -15.8 c 2.7 -2 5.3 -3.9 7.8 -5.8 c 2.9 -2.1 5.8 -2.9 8.7 -2.3 c 2.9 0.6 5.2 1.9 6.7 4.1 c 1.5 2.1 1.5 4.6 0 7.5 c -8.9 13.1 -19.3 25.3 -31 36.7 c -11.8 11.4 -24.1 22.3 -36.8 32.9 c 30.4 3.3 59.8 0.2 88 -9.2 c 11 -3.7 21.4 -8.4 31.1 -14.1 c 7.5 -4.4 8.5 -6.1 15.6 -11 c 8 -5.5 26.3 -18.1 42.9 -20.2 c 16.9 -2.2 27.1 7 44.2 14.9 C 447.6 289.3 498.7 273.1 498.8 275.1 z M 201.9 266.9 c -11.8 9.7 -21.9 20.4 -30.3 32.2 c 3.5 -3.6 7.2 -7.2 10.8 -10.9 C 189.2 281.4 195.7 274.3 201.9 266.9 z"/>
	</g>
</g>
<g>
	<path class="st1" d="M 234 340.8 v -0.3 l 13.2 -9.4 l -0.1 4 l -8.2 5.5 l 8.2 5.5 v 4 L 234 340.8 z"/>
	<path class="st1" d="M 251.4 328.6 h 3.5 v 24.6 h -3.5 V 328.6 z"/>
	<path class="st1" d="M 270.8 353.1 l -8.2 -11.9 v 11.9 h -3.5 V 328.6 h 3.5 v 11.8 l 7.6 -11.8 h 4 l -7.8 12.1 l 8.6 12.5 H 270.8 z"/>
	<path class="st1" d="M 289.5 353.1 l -6 -9.5 h -2.7 v 9.5 h -3.5 l 0 -24.6 h 6.9 c 4.1 0 7.5 3.5 7.5 7.9 c 0 3.2 -1.8 5.9 -4.4 6.8 l 6.4 9.8 H 289.5 z M 284.3 340.4 c 2.1 0 3.8 -1.9 3.8 -4 c 0 -2.3 -1.8 -4 -3.8 -4 h -3.5 v 8 H 284.3 z"/>
	<path class="st1" d="M 310 349.4 h -10.5 l -1.5 3.7 h -3.8 l 10.4 -25.1 h 0.2 l 10.4 25.1 h -3.8 L 310 349.4 z M 308.7 346.1 l -3.9 -9.6 l -3.9 9.6 H 308.7 z"/>
	<path class="st1" d="M 339.4 328.1 v 25.1 h -3.5 v -13.6 l -7.3 13.2 h 0 l -7.3 -13.2 v 13.6 h -3.5 v -25.1 H 318 l 10.6 17.9 l 10.6 -17.9 H 339.4 z"/>
	<path class="st1" d="M 357.5 349.4 h -10.5 l -1.5 3.7 h -3.8 l 10.4 -25.1 h 0.2 l 10.4 25.1 h -3.8 L 357.5 349.4 z M 356.2 346.1 l -3.9 -9.6 l -3.9 9.6 H 356.2 z"/>
	<path class="st1" d="M 377.4 353.1 l -6 -9.5 h -2.7 v 9.5 h -3.5 l 0 -24.6 h 6.9 c 4.1 0 7.5 3.5 7.5 7.9 c 0 3.2 -1.8 5.9 -4.4 6.8 l 6.4 9.8 H 377.4 z M 372.2 340.4 c 2.1 0 3.8 -1.9 3.8 -4 c 0 -2.3 -1.8 -4 -3.8 -4 h -3.5 v 8 H 372.2 z"/>
	<path class="st1" d="M 387.5 332.4 v 6.3 h 8.4 v 3.8 h -8.4 v 6.8 h 9.7 v 3.8 h -13.2 V 328.6 h 13.2 v 3.8 H 387.5 z"/>
	<path class="st1" d="M 418.5 328.5 v 25 h -0.2 l -14.1 -16.4 v 16 h -3.5 v -25 h 0.2 l 14.1 16.4 v -16 H 418.5 z"/>
	<path class="st1" d="M 434.4 353.1 l -8.2 -11.9 v 11.9 h -3.5 V 328.6 h 3.5 v 11.8 l 7.6 -11.8 h 4 L 430 340.6 l 8.6 12.5 H 434.4 z"/>
	<path class="st1" d="M 437.9 340.9 c 0 -7 5.1 -12.7 11.4 -12.7 c 6.3 0 11.4 5.7 11.4 12.7 c 0 6.9 -5.2 12.6 -11.4 12.6 C 443 353.5 437.9 347.8 437.9 340.9 z M 457.2 340.9 c 0 -4.9 -3.6 -8.8 -7.9 -8.8 s -7.9 4 -7.9 8.8 c 0 4.8 3.5 8.8 7.9 8.8 S 457.2 345.7 457.2 340.9 z"/>
	<path class="st1" d="M 464 346.1 l 8.2 -5.5 l -8.2 -5.5 l -0.1 -4 l 13.2 9.4 v 0.3 l -13.1 9.4 V 346.1 z"/>
</g>
</svg>
